<svg width="300" height="300" viewBox="0 0 300 300" fill="none" xmlns="http://www.w3.org/2000/svg">
<path d="M34.0573 269.121L32.1714 246.961L39.0987 248.47L36.8727 269.121H34.0573Z" fill="#E7D28B" stroke="#917723" stroke-width="2"/>
<path d="M79.2235 291.28L77.3375 269.121L84.2649 270.63L82.0388 291.28H79.2235Z" fill="#E7D28B" stroke="#917723" stroke-width="2"/>
<path d="M278.189 246.961L276.303 224.801L283.231 226.31L281.005 246.961H278.189Z" fill="#E7D28B" stroke="#917723" stroke-width="2"/>
<path d="M38.1875 155.913L38.8505 175.045C41.7326 175.797 45.3251 176.744 49.2441 177.79C49.2252 176.789 49.1963 175.516 49.1582 174.144C49.0419 169.96 48.8395 164.845 48.5733 163.647C48.1313 161.659 48.7943 159.007 45.9216 158.123C43.6235 157.416 40.3236 156.724 38.1875 155.913Z" fill="white"/>
<path d="M12.9966 177.79L18.7419 247.838L86.1388 279.879C82.8978 259.55 80.1725 219.112 78.1837 210.715C76.2559 202.575 76.4159 200.329 70.0077 197.235C64.8811 194.76 31.7057 183.24 12.9966 177.79Z" fill="white"/>
<path d="M86.1388 188.396C94.0938 191.49 94.7567 200.992 96.5245 210.715C97.9387 218.493 99.7654 240.325 100.502 250.269L264.906 217.344C263.286 213.44 264.022 204.793 259.603 202.318C255.183 199.843 210.694 196.057 191.543 194.363V163.647C192.869 157.752 191.543 144.644 184.914 144.644C179.422 144.644 171.434 144.938 169.888 144.644L38.1875 155.913C40.3236 156.724 43.6235 157.416 45.9216 158.123C48.7943 159.007 48.1313 161.659 48.5733 163.647C48.8395 164.845 49.0419 169.96 49.1582 174.144C49.1963 175.516 49.2252 176.789 49.2441 177.79C63.153 181.502 81.1737 186.466 86.1388 188.396Z" fill="white"/>
<path d="M264.906 217.344C264.022 206.737 264.022 189.634 264.022 183.093C264.022 174.917 258.719 171.032 254.52 170.056C250.044 169.014 213.64 165.629 191.543 163.647V194.363C210.694 196.057 255.183 199.843 259.603 202.318C264.022 204.793 263.286 213.44 264.906 217.344Z" fill="white"/>
<path d="M287.004 164.31L217.176 159.449L191.543 163.647C213.64 165.629 250.044 169.014 254.52 170.056C258.719 171.032 264.022 174.917 264.022 183.093C264.022 189.634 264.022 206.737 264.906 217.344L100.502 250.269C99.7654 240.325 97.9387 218.493 96.5245 210.715C94.7567 200.992 94.0938 191.49 86.1388 188.396C81.1737 186.466 63.153 181.502 49.2441 177.79C45.3251 176.744 41.7326 175.797 38.8505 175.045L12.9966 177.79C31.7057 183.24 64.8811 194.76 70.0077 197.235C76.4159 200.329 76.2559 202.575 78.1837 210.715C80.1725 219.112 82.8978 259.55 86.1388 279.879L287.004 230.823V164.31Z" fill="white"/>
<path d="M12.9966 177.79L18.7419 247.838L86.1388 279.879M12.9966 177.79C31.7057 183.24 64.8811 194.76 70.0077 197.235C76.4159 200.329 76.2559 202.575 78.1837 210.715C80.1725 219.112 82.8978 259.55 86.1388 279.879M12.9966 177.79L38.8505 175.045M86.1388 279.879L287.004 230.823V164.31L217.176 159.449L191.543 163.647M38.8505 175.045L38.1875 155.913M38.8505 175.045C41.7326 175.797 45.3251 176.744 49.2441 177.79M264.906 217.344L100.502 250.269C99.7654 240.325 97.9387 218.493 96.5245 210.715C94.7567 200.992 94.0938 191.49 86.1388 188.396C81.1737 186.466 63.153 181.502 49.2441 177.79M264.906 217.344C264.022 206.737 264.022 189.634 264.022 183.093C264.022 174.917 258.719 171.032 254.52 170.056C250.044 169.014 213.64 165.629 191.543 163.647M264.906 217.344C263.286 213.44 264.022 204.793 259.603 202.318C255.183 199.843 210.694 196.057 191.543 194.363V163.647M191.543 163.647C192.869 157.752 191.543 144.644 184.914 144.644C179.422 144.644 171.434 144.938 169.888 144.644L38.1875 155.913M38.1875 155.913C40.3236 156.724 43.6235 157.416 45.9216 158.123C48.7943 159.007 48.1313 161.659 48.5733 163.647C48.8395 164.845 49.0419 169.96 49.1582 174.144C49.1963 175.516 49.2252 176.789 49.2441 177.79" stroke="black" stroke-width="3"/>
<path d="M12.9966 177.79L18.7419 247.838L86.1388 279.879C82.8978 259.55 80.1725 219.112 78.1837 210.715C76.2559 202.575 76.4159 200.329 70.0077 197.235C64.8811 194.76 31.7057 183.24 12.9966 177.79Z" fill="#E3E3E3"/>
<path d="M86.1388 188.396C94.0938 191.49 94.7567 200.992 96.5245 210.715C97.9387 218.493 99.7654 240.325 100.502 250.269L264.906 217.344C263.286 213.44 264.022 204.793 259.603 202.318C255.183 199.843 210.694 196.057 191.543 194.363V163.647C192.869 157.752 191.543 144.644 184.914 144.644C179.422 144.644 171.434 144.938 169.888 144.644L38.1875 155.913C40.3236 156.724 43.6235 157.416 45.9216 158.123C48.7943 159.007 48.1313 161.659 48.5733 163.647C48.8395 164.845 49.0419 169.96 49.1582 174.144C49.1963 175.516 49.2252 176.789 49.2441 177.79C63.153 181.502 81.1737 186.466 86.1388 188.396Z" fill="#E3E3E3"/>
<path d="M264.906 217.344C264.022 206.737 264.022 189.634 264.022 183.093C264.022 174.917 258.719 171.032 254.52 170.056C250.044 169.014 213.64 165.629 191.543 163.647V194.363C210.694 196.057 255.183 199.843 259.603 202.318C264.022 204.793 263.286 213.44 264.906 217.344Z" fill="#E3E3E3"/>
<path d="M12.9966 177.79L18.7419 247.838L86.1388 279.879M12.9966 177.79C31.7057 183.24 64.8811 194.76 70.0077 197.235C76.4159 200.329 76.2559 202.575 78.1837 210.715C80.1725 219.112 82.8978 259.55 86.1388 279.879M12.9966 177.79L38.8505 175.045M86.1388 279.879L287.004 230.823V164.31L217.176 159.449L191.543 163.647M38.8505 175.045L38.1875 155.913M38.8505 175.045C41.7326 175.797 45.3251 176.744 49.2441 177.79M264.906 217.344L100.502 250.269C99.7654 240.325 97.9387 218.493 96.5245 210.715C94.7567 200.992 94.0938 191.49 86.1388 188.396C81.1737 186.466 63.153 181.502 49.2441 177.79M264.906 217.344C264.022 206.737 264.022 189.634 264.022 183.093C264.022 174.917 258.719 171.032 254.52 170.056C250.044 169.014 213.64 165.629 191.543 163.647M264.906 217.344C263.286 213.44 264.022 204.793 259.603 202.318C255.183 199.843 210.694 196.057 191.543 194.363V163.647M191.543 163.647C192.869 157.752 191.543 144.644 184.914 144.644C179.422 144.644 171.434 144.938 169.888 144.644L38.1875 155.913M38.1875 155.913C40.3236 156.724 43.6235 157.416 45.9216 158.123C48.7943 159.007 48.1313 161.659 48.5733 163.647C48.8395 164.845 49.0419 169.96 49.1582 174.144C49.1963 175.516 49.2252 176.789 49.2441 177.79" stroke="black" stroke-width="3"/>
<g style="mix-blend-mode:multiply">
<path d="M134.734 201.63L191.438 194.394C201.517 194.896 213.173 196.644 222.789 197.518C257.408 200.666 261.544 201.598 261.544 205.386C260.492 205.808 256.219 207.218 247.544 209.481C236.7 212.31 205.111 207.124 181.537 204.295C164.83 202.29 146.733 200.575 134.734 201.63L130.417 202.181C131.744 201.948 133.188 201.766 134.734 201.63Z" fill="#C4C4C4"/>
</g>
</svg>
