<svg width="504" height="489" viewBox="0 0 504 489" fill="none" xmlns="http://www.w3.org/2000/svg">
<rect width="504" height="489" fill="white"/>
<path d="M392.263 349.22C412.713 339.677 424.074 323.658 427.198 316.841L143.883 413.126C132.096 417.102 107.755 427.1 104.687 435.28C100.853 445.505 112.356 449.765 128.545 444.653C144.735 439.541 180.096 430.168 189.043 436.984C197.99 443.801 179.67 446.357 166.889 449.765C154.108 453.174 148.143 462.121 164.333 468.511C180.522 474.902 247.41 445.079 266.156 441.671C284.901 438.262 296.831 409.718 310.038 391.824C323.245 373.931 366.701 361.149 392.263 349.22Z" fill="#DBDBDB"/>
<path d="M425.494 310.451C426.176 314.541 424.074 318.12 422.938 319.398L137.492 414.404C136.782 413.41 135.397 411.661 134.706 409.59C134.002 407.478 136.214 405.457 138.344 404.605L157.942 399.493C135.813 397.32 125.137 402.475 102.983 393.954C75.2906 383.303 82.1072 356.463 90.628 352.629C99.1488 348.794 255.079 292.983 303.647 286.167C352.215 279.35 405.896 289.149 410.157 290.427C414.417 291.705 424.642 305.338 425.494 310.451Z" fill="#C4C4C4"/>
<path fill-rule="evenodd" clip-rule="evenodd" d="M404.963 288.539C405.439 287.586 406.598 287.2 407.551 287.676C413.448 290.625 419.546 296.155 423.337 301.697C425.23 304.464 426.652 307.382 427.099 310.107C427.556 312.889 427.877 317.894 425.524 319.855C425.112 320.198 424.475 320.537 423.849 320.845C423.159 321.184 422.266 321.586 421.195 322.044C419.05 322.961 415.595 324.624 411.995 326.011C404.793 328.788 395.646 332.461 383.852 336.707C360.259 345.199 329.193 356.042 297.609 366.849C266.024 377.656 233.913 388.43 208.23 396.782C182.628 405.107 159.996 411.172 153.988 412.317C135.372 415.863 125.236 417.791 121.568 419.627C120.616 420.104 119.457 419.718 118.98 418.766C118.503 417.813 118.889 416.655 119.841 416.178C123.91 414.14 136.51 409.328 155.37 405.736C161.073 404.649 180.161 398.778 205.901 390.408C231.56 382.064 263.651 371.297 295.224 360.494C326.797 349.691 357.843 338.854 381.41 330.372C393.195 326.13 403.099 322.48 410.262 319.719C413.845 318.337 416.727 317.184 418.808 316.294C419.851 315.848 420.674 315.476 421.277 315.18C421.579 315.031 421.81 314.91 421.978 314.813C422.124 314.73 422.183 314.688 422.19 314.683C423.178 313.856 423.602 312.616 423.293 310.732C422.973 308.786 421.885 306.406 420.154 303.875C416.695 298.821 411.081 293.755 405.825 291.127C404.873 290.65 404.486 289.492 404.963 288.539Z" fill="#51443F"/>
<path d="M395.205 283.01C399.867 283.88 401.856 284.129 401.919 286.118C401.989 288.382 397.11 286.855 392.781 284.999C391.476 284.44 388.368 284.129 388.119 283.259C387.75 281.968 390.235 282.315 395.205 283.01Z" fill="#51443F"/>
<path d="M112.912 418.636C113.965 421.533 112.649 423.113 107.646 422.849C103.644 422.639 109.489 419.953 112.912 418.636Z" fill="#51443F"/>
<path d="M304.357 321.156L346.208 338.411L343.161 340.403L304.357 321.156Z" fill="#959595"/>
<path d="M281.321 307.98L299.684 317.837C297.479 317.327 292.611 316.044 290.773 314.988C288.936 313.933 283.706 309.876 281.321 307.98Z" fill="#959595"/>
<path d="M184.386 340.848L245.44 371.127L241.583 373.126L184.386 340.848Z" fill="#8F8F8F"/>
<path d="M345.94 338.643L337.304 335.587M243.25 371.82L237.611 368.392M144.509 402.364L138.344 399.493" stroke="#545454"/>
<path d="M404.023 293.821C410.457 297.498 420.526 305.332 417.99 311.567C416.294 315.737 388.209 324.749 375.76 328.978C368.463 331.456 162.754 399.29 155.172 400.669C149.106 401.772 133.802 405.724 126.909 407.562" stroke="#545454" stroke-linecap="round"/>
<path opacity="0.5" d="M78.2344 299.153L246.238 335.587C235.443 307.249 213.937 263.683 157.207 254.291C113.861 247.114 67.1352 254.291 78.2344 299.153Z" fill="#97A5A1"/>
<path d="M358.067 162.95C358.067 177.421 351.416 195.045 340.435 213.962C329.563 232.694 314.962 251.83 300.2 269.111C285.462 286.363 270.702 301.604 259.616 312.541C254.077 318.005 249.466 322.384 246.246 325.391C246.243 325.393 246.241 325.396 246.238 325.399C246.235 325.396 246.232 325.393 246.23 325.391C243.01 322.384 238.399 318.005 232.86 312.541C221.774 301.604 207.014 286.363 192.276 269.111C177.513 251.83 162.913 232.694 152.041 213.962C141.06 195.045 134.409 177.421 134.409 162.95C134.409 101.188 184.476 51.1207 246.238 51.1207C307.999 51.1207 358.067 101.188 358.067 162.95Z" fill="#C5F3DA" stroke="#0DD89B" stroke-width="15"/>
<rect x="189.937" y="106.649" width="112.602" height="112.602" rx="22.5" fill="#C4C4C4" stroke="black" stroke-width="15"/>
<circle cx="246.238" cy="162.95" r="15" stroke="black" stroke-width="10.8474"/>
<rect x="265.601" y="125.259" width="19.5219" height="13.2669" stroke="black" stroke-width="8"/>
</svg>
