<svg width="538" height="339" viewBox="0 0 538 339" fill="none" xmlns="http://www.w3.org/2000/svg">
<g clip-path="url(#clip0)">
<path d="M372.423 316.642C364.561 314.828 65.2175 212.628 53.7276 209C50.3007 207.589 43.4471 203.678 43.4471 199.324C43.4471 193.881 39.8186 151.55 39.2139 146.712C38.7301 142.842 36.9966 138.246 36.1902 136.431C34.376 136.23 30.2638 133.166 28.3287 122.523C25.9098 109.218 31.3524 99.5426 43.4471 96.519C53.1228 94.1 105.13 88.6574 129.924 86.2385C128.916 84.8274 126.78 81.4006 126.296 78.9816C125.691 75.958 133.553 48.7449 136.576 35.4407C139.6 22.1365 154.718 24.5555 161.37 26.3697C168.022 28.1839 458.9 60.2348 469.785 60.8396C480.671 61.4443 489.742 67.4917 489.741 75.958C489.741 84.4243 481.275 97.1237 475.228 102.566C470.39 106.92 470.39 131.795 470.995 143.688C477.042 145.502 489.5 152.034 490.951 163.645C492.402 175.255 480.267 183.802 474.018 186.624C472.003 200.332 467.487 230.891 465.552 243.47C463.133 259.193 463.133 256.774 459.505 261.612C455.876 266.45 405.079 305.757 398.427 312.409C391.774 319.061 380.284 318.457 372.423 316.642Z" fill="#C5F3DA" stroke="#0DD89B" stroke-width="10" stroke-linejoin="round" stroke-dasharray="30 10"/>
<path d="M251.483 166.95C251.568 161.852 252.147 157.825 253.217 154.869C254.288 151.914 256.473 148.636 259.772 145.038L268.189 136.364C271.788 132.294 273.587 127.925 273.587 123.255C273.587 118.757 272.409 115.245 270.053 112.717C267.697 110.147 264.27 108.862 259.772 108.862C255.402 108.862 251.889 110.018 249.234 112.332C246.578 114.645 245.25 117.751 245.25 121.649H233.362C233.448 114.709 235.911 109.119 240.752 104.878C245.635 100.594 251.975 98.4523 259.772 98.4523C267.868 98.4523 274.165 100.637 278.663 105.006C283.204 109.333 285.474 115.287 285.474 122.87C285.474 130.366 282.004 137.756 275.065 145.038L268.061 151.978C264.934 155.448 263.37 160.438 263.37 166.95H251.483ZM250.968 187.319C250.968 185.391 251.547 183.785 252.703 182.5C253.903 181.172 255.659 180.508 257.972 180.508C260.286 180.508 262.042 181.172 263.241 182.5C264.441 183.785 265.041 185.391 265.041 187.319C265.041 189.246 264.441 190.853 263.241 192.138C262.042 193.38 260.286 194.001 257.972 194.001C255.659 194.001 253.903 193.38 252.703 192.138C251.547 190.853 250.968 189.246 250.968 187.319Z" fill="#0DD89B"/>
</g>
<defs>
<clipPath id="clip0">
<rect width="538" height="339" fill="white"/>
</clipPath>
</defs>
</svg>
